<mxfile host="Electron" modified="2024-05-08T11:58:37.020Z" agent="Mozilla/5.0 (Macintosh; Intel Mac OS X 10_15_7) AppleWebKit/537.36 (KHTML, like Gecko) draw.io/24.2.5 Chrome/120.0.6099.109 Electron/28.1.0 Safari/537.36" etag="3W2JK0ZgYlT383ZQqQ_u" version="24.2.5" type="device">
  <diagram name="Page-1" id="929967ad-93f9-6ef4-fab6-5d389245f69c">
    <mxGraphModel dx="1026" dy="743" grid="1" gridSize="10" guides="1" tooltips="1" connect="1" arrows="1" fold="1" page="1" pageScale="1.5" pageWidth="1169" pageHeight="826" background="none" math="0" shadow="0">
      <root>
        <mxCell id="0" style=";html=1;" />
        <mxCell id="1" style=";html=1;" parent="0" />
        <mxCell id="YfMEqkQIbnu-uPnGuiMP-3" value="Annotable" style="swimlane;fontStyle=1;align=center;verticalAlign=top;childLayout=stackLayout;horizontal=1;startSize=26;horizontalStack=0;resizeParent=1;resizeParentMax=0;resizeLast=0;collapsible=1;marginBottom=0;whiteSpace=wrap;html=1;fillColor=none;" vertex="1" parent="1">
          <mxGeometry x="434" y="140" width="160" height="52" as="geometry" />
        </mxCell>
        <mxCell id="YfMEqkQIbnu-uPnGuiMP-4" value="+ annotations: dict" style="text;strokeColor=none;fillColor=none;align=left;verticalAlign=top;spacingLeft=4;spacingRight=4;overflow=hidden;rotatable=0;points=[[0,0.5],[1,0.5]];portConstraint=eastwest;whiteSpace=wrap;html=1;" vertex="1" parent="YfMEqkQIbnu-uPnGuiMP-3">
          <mxGeometry y="26" width="160" height="26" as="geometry" />
        </mxCell>
        <mxCell id="YfMEqkQIbnu-uPnGuiMP-7" value="&lt;b&gt;Document&lt;/b&gt;" style="swimlane;fontStyle=0;childLayout=stackLayout;horizontal=1;startSize=26;fillColor=none;horizontalStack=0;resizeParent=1;resizeParentMax=0;resizeLast=0;collapsible=1;marginBottom=0;whiteSpace=wrap;html=1;" vertex="1" parent="1">
          <mxGeometry x="539" y="374" width="190" height="130" as="geometry" />
        </mxCell>
        <mxCell id="YfMEqkQIbnu-uPnGuiMP-8" value="+ meta: dict" style="text;strokeColor=none;fillColor=none;align=left;verticalAlign=top;spacingLeft=4;spacingRight=4;overflow=hidden;rotatable=0;points=[[0,0.5],[1,0.5]];portConstraint=eastwest;whiteSpace=wrap;html=1;" vertex="1" parent="YfMEqkQIbnu-uPnGuiMP-7">
          <mxGeometry y="26" width="190" height="26" as="geometry" />
        </mxCell>
        <mxCell id="YfMEqkQIbnu-uPnGuiMP-9" value="+ title: str" style="text;strokeColor=none;fillColor=none;align=left;verticalAlign=top;spacingLeft=4;spacingRight=4;overflow=hidden;rotatable=0;points=[[0,0.5],[1,0.5]];portConstraint=eastwest;whiteSpace=wrap;html=1;" vertex="1" parent="YfMEqkQIbnu-uPnGuiMP-7">
          <mxGeometry y="52" width="190" height="26" as="geometry" />
        </mxCell>
        <mxCell id="YfMEqkQIbnu-uPnGuiMP-10" value="+ sentences: List[Sentence]" style="text;strokeColor=none;fillColor=none;align=left;verticalAlign=top;spacingLeft=4;spacingRight=4;overflow=hidden;rotatable=0;points=[[0,0.5],[1,0.5]];portConstraint=eastwest;whiteSpace=wrap;html=1;" vertex="1" parent="YfMEqkQIbnu-uPnGuiMP-7">
          <mxGeometry y="78" width="190" height="26" as="geometry" />
        </mxCell>
        <mxCell id="YfMEqkQIbnu-uPnGuiMP-12" value="+ paragraphs:&amp;nbsp;List[Tuple[int, int]]" style="text;strokeColor=none;fillColor=none;align=left;verticalAlign=top;spacingLeft=4;spacingRight=4;overflow=hidden;rotatable=0;points=[[0,0.5],[1,0.5]];portConstraint=eastwest;whiteSpace=wrap;html=1;" vertex="1" parent="YfMEqkQIbnu-uPnGuiMP-7">
          <mxGeometry y="104" width="190" height="26" as="geometry" />
        </mxCell>
        <mxCell id="YfMEqkQIbnu-uPnGuiMP-14" value="&lt;b&gt;Sentence&lt;/b&gt;" style="swimlane;fontStyle=0;childLayout=stackLayout;horizontal=1;startSize=26;fillColor=none;horizontalStack=0;resizeParent=1;resizeParentMax=0;resizeLast=0;collapsible=1;marginBottom=0;whiteSpace=wrap;html=1;" vertex="1" parent="1">
          <mxGeometry x="240" y="399" width="190" height="78" as="geometry" />
        </mxCell>
        <mxCell id="YfMEqkQIbnu-uPnGuiMP-16" value="+ terms: List[Term]" style="text;strokeColor=none;fillColor=none;align=left;verticalAlign=top;spacingLeft=4;spacingRight=4;overflow=hidden;rotatable=0;points=[[0,0.5],[1,0.5]];portConstraint=eastwest;whiteSpace=wrap;html=1;" vertex="1" parent="YfMEqkQIbnu-uPnGuiMP-14">
          <mxGeometry y="26" width="190" height="26" as="geometry" />
        </mxCell>
        <mxCell id="YfMEqkQIbnu-uPnGuiMP-17" value="+ surface: str" style="text;strokeColor=none;fillColor=none;align=left;verticalAlign=top;spacingLeft=4;spacingRight=4;overflow=hidden;rotatable=0;points=[[0,0.5],[1,0.5]];portConstraint=eastwest;whiteSpace=wrap;html=1;" vertex="1" parent="YfMEqkQIbnu-uPnGuiMP-14">
          <mxGeometry y="52" width="190" height="26" as="geometry" />
        </mxCell>
        <mxCell id="YfMEqkQIbnu-uPnGuiMP-19" value="&lt;b&gt;Sequence&lt;/b&gt;" style="swimlane;fontStyle=0;childLayout=stackLayout;horizontal=1;startSize=26;fillColor=none;horizontalStack=0;resizeParent=1;resizeParentMax=0;resizeLast=0;collapsible=1;marginBottom=0;whiteSpace=wrap;html=1;" vertex="1" parent="1">
          <mxGeometry x="264" y="270" width="140" height="52" as="geometry" />
        </mxCell>
        <mxCell id="YfMEqkQIbnu-uPnGuiMP-20" value="+ tokens: List[Token]" style="text;strokeColor=none;fillColor=none;align=left;verticalAlign=top;spacingLeft=4;spacingRight=4;overflow=hidden;rotatable=0;points=[[0,0.5],[1,0.5]];portConstraint=eastwest;whiteSpace=wrap;html=1;" vertex="1" parent="YfMEqkQIbnu-uPnGuiMP-19">
          <mxGeometry y="26" width="140" height="26" as="geometry" />
        </mxCell>
        <mxCell id="YfMEqkQIbnu-uPnGuiMP-23" value="&lt;b&gt;Token&lt;/b&gt;" style="swimlane;fontStyle=0;childLayout=stackLayout;horizontal=1;startSize=26;fillColor=none;horizontalStack=0;resizeParent=1;resizeParentMax=0;resizeLast=0;collapsible=1;marginBottom=0;whiteSpace=wrap;html=1;" vertex="1" parent="1">
          <mxGeometry x="34" y="413" width="140" height="52" as="geometry" />
        </mxCell>
        <mxCell id="YfMEqkQIbnu-uPnGuiMP-24" value="+ surface: str" style="text;strokeColor=none;fillColor=none;align=left;verticalAlign=top;spacingLeft=4;spacingRight=4;overflow=hidden;rotatable=0;points=[[0,0.5],[1,0.5]];portConstraint=eastwest;whiteSpace=wrap;html=1;" vertex="1" parent="YfMEqkQIbnu-uPnGuiMP-23">
          <mxGeometry y="26" width="140" height="26" as="geometry" />
        </mxCell>
        <mxCell id="YfMEqkQIbnu-uPnGuiMP-27" value="&lt;b&gt;Term&lt;/b&gt;" style="swimlane;fontStyle=0;childLayout=stackLayout;horizontal=1;startSize=26;fillColor=none;horizontalStack=0;resizeParent=1;resizeParentMax=0;resizeLast=0;collapsible=1;marginBottom=0;whiteSpace=wrap;html=1;" vertex="1" parent="1">
          <mxGeometry x="141" y="530" width="140" height="52" as="geometry" />
        </mxCell>
        <mxCell id="YfMEqkQIbnu-uPnGuiMP-28" value="+ tokens: List[Token]" style="text;strokeColor=none;fillColor=none;align=left;verticalAlign=top;spacingLeft=4;spacingRight=4;overflow=hidden;rotatable=0;points=[[0,0.5],[1,0.5]];portConstraint=eastwest;whiteSpace=wrap;html=1;" vertex="1" parent="YfMEqkQIbnu-uPnGuiMP-27">
          <mxGeometry y="26" width="140" height="26" as="geometry" />
        </mxCell>
        <mxCell id="YfMEqkQIbnu-uPnGuiMP-29" value="Extends" style="endArrow=block;endSize=16;endFill=0;html=1;rounded=0;exitX=0.5;exitY=0;exitDx=0;exitDy=0;entryX=0.5;entryY=1;entryDx=0;entryDy=0;labelBackgroundColor=none;" edge="1" parent="1" source="YfMEqkQIbnu-uPnGuiMP-19" target="YfMEqkQIbnu-uPnGuiMP-3">
          <mxGeometry width="160" relative="1" as="geometry">
            <mxPoint x="394" y="240" as="sourcePoint" />
            <mxPoint x="554" y="240" as="targetPoint" />
            <Array as="points">
              <mxPoint x="334" y="230" />
              <mxPoint x="514" y="230" />
            </Array>
          </mxGeometry>
        </mxCell>
        <mxCell id="YfMEqkQIbnu-uPnGuiMP-31" value="Extends" style="endArrow=block;endSize=16;endFill=0;html=1;rounded=0;exitX=0.5;exitY=0;exitDx=0;exitDy=0;entryX=0.514;entryY=1.077;entryDx=0;entryDy=0;entryPerimeter=0;labelBackgroundColor=none;" edge="1" parent="1" source="YfMEqkQIbnu-uPnGuiMP-14" target="YfMEqkQIbnu-uPnGuiMP-20">
          <mxGeometry width="160" relative="1" as="geometry">
            <mxPoint x="344" y="350" as="sourcePoint" />
            <mxPoint x="504" y="350" as="targetPoint" />
          </mxGeometry>
        </mxCell>
        <mxCell id="YfMEqkQIbnu-uPnGuiMP-33" value="Extends" style="endArrow=block;endSize=16;endFill=0;html=1;rounded=0;exitX=0.5;exitY=0;exitDx=0;exitDy=0;entryX=0;entryY=0.5;entryDx=0;entryDy=0;labelBackgroundColor=none;" edge="1" parent="1" source="YfMEqkQIbnu-uPnGuiMP-23" target="YfMEqkQIbnu-uPnGuiMP-3">
          <mxGeometry width="160" relative="1" as="geometry">
            <mxPoint x="454" y="400" as="sourcePoint" />
            <mxPoint x="514" y="200" as="targetPoint" />
            <Array as="points">
              <mxPoint x="104" y="166" />
            </Array>
          </mxGeometry>
        </mxCell>
        <mxCell id="YfMEqkQIbnu-uPnGuiMP-34" value="" style="endArrow=diamondThin;endFill=0;endSize=24;html=1;rounded=0;exitX=1;exitY=0.5;exitDx=0;exitDy=0;entryX=0;entryY=0.5;entryDx=0;entryDy=0;" edge="1" parent="1" source="YfMEqkQIbnu-uPnGuiMP-16" target="YfMEqkQIbnu-uPnGuiMP-9">
          <mxGeometry width="160" relative="1" as="geometry">
            <mxPoint x="454" y="400" as="sourcePoint" />
            <mxPoint x="614" y="400" as="targetPoint" />
          </mxGeometry>
        </mxCell>
        <mxCell id="YfMEqkQIbnu-uPnGuiMP-35" value="" style="endArrow=diamondThin;endFill=0;endSize=24;html=1;rounded=0;exitX=0.5;exitY=0;exitDx=0;exitDy=0;entryX=0;entryY=0.5;entryDx=0;entryDy=0;" edge="1" parent="1" source="YfMEqkQIbnu-uPnGuiMP-23" target="YfMEqkQIbnu-uPnGuiMP-19">
          <mxGeometry width="160" relative="1" as="geometry">
            <mxPoint x="454" y="400" as="sourcePoint" />
            <mxPoint x="614" y="400" as="targetPoint" />
            <Array as="points">
              <mxPoint x="104" y="296" />
            </Array>
          </mxGeometry>
        </mxCell>
        <mxCell id="YfMEqkQIbnu-uPnGuiMP-36" value="" style="endArrow=diamondThin;endFill=0;endSize=24;html=1;rounded=0;entryX=0;entryY=0.5;entryDx=0;entryDy=0;" edge="1" parent="1" target="YfMEqkQIbnu-uPnGuiMP-27">
          <mxGeometry width="160" relative="1" as="geometry">
            <mxPoint x="94" y="467" as="sourcePoint" />
            <mxPoint x="104" y="540" as="targetPoint" />
            <Array as="points">
              <mxPoint x="94" y="556" />
            </Array>
          </mxGeometry>
        </mxCell>
        <mxCell id="YfMEqkQIbnu-uPnGuiMP-37" value="" style="endArrow=diamondThin;endFill=0;endSize=24;html=1;rounded=0;exitX=1;exitY=0.5;exitDx=0;exitDy=0;entryX=0.497;entryY=1.115;entryDx=0;entryDy=0;entryPerimeter=0;" edge="1" parent="1" source="YfMEqkQIbnu-uPnGuiMP-27" target="YfMEqkQIbnu-uPnGuiMP-17">
          <mxGeometry width="160" relative="1" as="geometry">
            <mxPoint x="444" y="400" as="sourcePoint" />
            <mxPoint x="604" y="400" as="targetPoint" />
            <Array as="points">
              <mxPoint x="334" y="556" />
            </Array>
          </mxGeometry>
        </mxCell>
        <mxCell id="YfMEqkQIbnu-uPnGuiMP-41" value="Extends" style="endArrow=block;endSize=16;endFill=0;html=1;rounded=0;entryX=1;entryY=0.5;entryDx=0;entryDy=0;exitX=0.5;exitY=0;exitDx=0;exitDy=0;labelBackgroundColor=none;" edge="1" parent="1" source="YfMEqkQIbnu-uPnGuiMP-7" target="YfMEqkQIbnu-uPnGuiMP-3">
          <mxGeometry width="160" relative="1" as="geometry">
            <mxPoint x="444" y="400" as="sourcePoint" />
            <mxPoint x="594" y="250" as="targetPoint" />
            <Array as="points">
              <mxPoint x="634" y="166" />
            </Array>
          </mxGeometry>
        </mxCell>
        <mxCell id="YfMEqkQIbnu-uPnGuiMP-45" value="Extends" style="endArrow=block;endSize=16;endFill=0;html=1;rounded=0;exitX=0.5;exitY=0;exitDx=0;exitDy=0;entryX=0;entryY=0.5;entryDx=0;entryDy=0;labelBackgroundColor=none;" edge="1" parent="1" source="YfMEqkQIbnu-uPnGuiMP-27" target="YfMEqkQIbnu-uPnGuiMP-3">
          <mxGeometry width="160" relative="1" as="geometry">
            <mxPoint x="344" y="400" as="sourcePoint" />
            <mxPoint x="504" y="400" as="targetPoint" />
            <Array as="points">
              <mxPoint x="211" y="166" />
            </Array>
          </mxGeometry>
        </mxCell>
      </root>
    </mxGraphModel>
  </diagram>
</mxfile>
